<?xml version="1.0" encoding="UTF-8"?>
<svg viewBox="0 0 991.59174 1057.382" xmlns="http://www.w3.org/2000/svg" xmlns:xlink="http://www.w3.org/1999/xlink">
 <defs>
  <filter id="bd">
   <feGaussianBlur stdDeviation="1.71978"/>
  </filter>
  <filter id="n"/>
  <linearGradient id="o">
   <stop offset="0"/>
   <stop stop-opacity="0" offset="1"/>
  </linearGradient>
  <linearGradient id="p">
   <stop stop-color="#28220b" offset="0"/>
   <stop stop-color="#28220b" stop-opacity="0" offset="1"/>
  </linearGradient>
  <linearGradient id="m">
   <stop stop-color="#fff" offset="0"/>
   <stop stop-color="#ccc" offset=".30407"/>
   <stop stop-color="#727272" offset=".54893"/>
   <stop stop-color="#505050" offset=".85089"/>
   <stop stop-color="#929292" offset="1"/>
  </linearGradient>
  <linearGradient id="r">
   <stop stop-color="#603538" offset="0"/>
   <stop stop-color="#573032" offset=".61608"/>
   <stop stop-color="#341c1e" offset="1"/>
  </linearGradient>
  <linearGradient id="b">
   <stop stop-color="#fefefe" offset="0"/>
   <stop stop-color="#252525" stop-opacity="0" offset="1"/>
  </linearGradient>
  <linearGradient id="c">
   <stop offset="0"/>
   <stop stop-color="#333" offset=".16701"/>
   <stop stop-color="#969696" offset=".45187"/>
   <stop stop-color="#666" stop-opacity=".09964" offset="1"/>
  </linearGradient>
  <linearGradient id="h" x1="102.23" x2="110.79" gradientUnits="userSpaceOnUse">
   <stop offset="0"/>
   <stop stop-color="#b7c4c8" offset=".19752"/>
   <stop stop-color="#3e4551" offset=".57062"/>
   <stop stop-color="#e2e4e9" offset=".76903"/>
   <stop offset="1"/>
  </linearGradient>
  <linearGradient id="f" x1="101.55" x2="110.69" gradientUnits="userSpaceOnUse">
   <stop stop-color="#030405" offset="0"/>
   <stop stop-color="#565656" offset=".5"/>
   <stop stop-color="#cfcfcf" offset="1"/>
  </linearGradient>
  <linearGradient id="ao" x2="0" y1="50.128" y2="56.865" gradientUnits="userSpaceOnUse">
   <stop stop-color="#fff" offset="0"/>
   <stop stop-color="#ccc" offset=".20285"/>
   <stop stop-color="#727272" offset=".54893"/>
   <stop stop-color="#505050" offset=".77781"/>
   <stop stop-color="#929292" offset="1"/>
  </linearGradient>
  <linearGradient id="e" x1="107.06" x2="107.13" y1="54.68" y2="51.09" gradientUnits="userSpaceOnUse">
   <stop stop-color="#7b97b5" offset="0"/>
   <stop stop-color="#565656" offset=".5"/>
   <stop stop-color="#cfcfcf" offset="1"/>
  </linearGradient>
  <linearGradient id="q" x2="0" y1="50.128" y2="56.865" gradientUnits="userSpaceOnUse">
   <stop stop-color="#fff" offset="0"/>
   <stop stop-color="#ccc" offset=".20285"/>
   <stop stop-color="#727272" offset=".54893"/>
   <stop stop-color="#505050" offset=".71997"/>
   <stop stop-color="#929292" offset="1"/>
  </linearGradient>
  <linearGradient id="an" x2="0" y1="58.323" y2="51.008" gradientUnits="userSpaceOnUse">
   <stop stop-color="#fff" offset="0"/>
   <stop stop-color="#ccc" offset=".14501"/>
   <stop stop-color="#727272" offset=".55634"/>
   <stop stop-color="#505050" offset=".79288"/>
   <stop stop-color="#929292" offset="1"/>
  </linearGradient>
  <linearGradient id="al" x1="251.4" x2="615.36" gradientUnits="userSpaceOnUse">
   <stop stop-color="#e8d3ca" offset="0"/>
   <stop stop-color="#4a2a14" offset=".04239"/>
   <stop stop-color="#2d1a0b" offset=".18307"/>
   <stop stop-color="#28170b" offset=".37426"/>
   <stop stop-color="#a05a2c" offset=".53347"/>
   <stop stop-color="#050301" offset=".73317"/>
   <stop stop-color="#502d16" offset=".84631"/>
   <stop stop-color="#e9c6af" offset=".92156"/>
   <stop stop-color="#774335" stop-opacity="0" offset="1"/>
  </linearGradient>
  <linearGradient id="aj" x2="0" y1="183.63" y2="143.86" gradientTransform="matrix(.67628 -.75077 .75689 .68179 83.14 771.5)" gradientUnits="userSpaceOnUse">
   <stop stop-color="#c8c49d" offset="0"/>
   <stop stop-color="#ece7b6" offset=".35046"/>
   <stop stop-color="#b6ab80" offset=".39055"/>
   <stop stop-color="#e6e1b2" offset=".41449"/>
   <stop stop-color="#e4deaf" offset=".67717"/>
   <stop stop-color="#baaf84" offset=".70375"/>
   <stop stop-color="#e2deaf" offset=".74033"/>
   <stop stop-color="#cac69e" offset="1"/>
  </linearGradient>
  <linearGradient id="ai" x1="356.81" x2="359.88" gradientTransform="matrix(-.67774 .74946 -.75556 -.68326 850.4 413.28)" gradientUnits="userSpaceOnUse">
   <stop offset="0"/>
   <stop stop-color="#8a413d" offset=".5"/>
   <stop stop-color="#9a3f54" offset=".68647"/>
   <stop stop-color="#211a17" offset="1"/>
  </linearGradient>
  <linearGradient id="ah" x1="102.23" x2="110.79" gradientUnits="userSpaceOnUse">
   <stop offset="0"/>
   <stop stop-color="#b7c4c8" offset=".12511"/>
   <stop stop-color="#3e4551" offset=".78784"/>
   <stop stop-color="#e2e4e9" offset=".78914"/>
   <stop offset="1"/>
  </linearGradient>
  <linearGradient id="ag" x2="0" y1="48.751" y2="56.865" gradientUnits="userSpaceOnUse">
   <stop stop-color="#fff" offset="0"/>
   <stop stop-color="#ccc" offset=".20285"/>
   <stop stop-color="#727272" offset=".62302"/>
   <stop stop-color="#505050" offset=".63606"/>
   <stop stop-color="#929292" offset="1"/>
  </linearGradient>
  <linearGradient id="af" x2="0" y1="57.986" y2="49.013" gradientUnits="userSpaceOnUse">
   <stop stop-color="#fff" offset="0"/>
   <stop stop-color="#ccc" offset=".21558"/>
   <stop stop-color="#727272" offset=".46216"/>
   <stop stop-color="#505050" offset=".5917"/>
   <stop stop-color="#929292" offset="1"/>
  </linearGradient>
  <linearGradient id="d" x2="0" y1="14.602" y2="12.721" gradientUnits="userSpaceOnUse">
   <stop stop-color="#252525" offset="0"/>
   <stop stop-color="#252525" stop-opacity="0" offset="1"/>
  </linearGradient>
  <linearGradient id="ad" x1="1500.3" x2="1575.1" gradientTransform="matrix(0 .14619 -.14738 0 131.33 -2.0287)" gradientUnits="userSpaceOnUse">
   <stop stop-color="#896f6a" offset="0"/>
   <stop stop-color="#5f4d4d" offset=".20884"/>
   <stop stop-color="#493946" offset=".50863"/>
   <stop stop-color="#282129" offset=".75353"/>
   <stop stop-color="#201007" offset="1"/>
  </linearGradient>
  <linearGradient id="bb" x2="0" y1="613.62" y2="294.83" gradientTransform="matrix(-.3741 .41369 -.41706 -.37715 1144.4 258.86)" gradientUnits="userSpaceOnUse">
   <stop stop-color="#291f22" offset="0"/>
   <stop stop-color="#473338" offset=".09442"/>
   <stop stop-color="#291a21" offset=".16476"/>
   <stop stop-color="#2b1b22" offset=".5128"/>
   <stop stop-color="#2b1c24" offset=".81597"/>
   <stop stop-color="#3f333d" offset=".87126"/>
   <stop stop-color="#1e1618" offset="1"/>
  </linearGradient>
  <linearGradient id="ba" x2="0" y1="228.45" y2="216.71" gradientTransform="matrix(2.8298 2.559 -2.559 2.8298 767.55 -71.47)" gradientUnits="userSpaceOnUse">
   <stop stop-color="#483945" offset="0"/>
   <stop stop-color="#917673" offset="1"/>
  </linearGradient>
  <linearGradient id="as" x1="113.59" x2="152.54" gradientTransform="matrix(1.3514 1.2221 -1.2122 1.3405 767.55 -71.472)" gradientUnits="userSpaceOnUse">
   <stop stop-color="#432527" offset="0"/>
   <stop stop-color="#2f1c22" offset=".27362"/>
   <stop stop-color="#643d3d" offset=".79932"/>
   <stop offset="1"/>
  </linearGradient>
  <linearGradient id="ar" x1="9.3524" x2="117.87" gradientTransform="matrix(2.8298 2.559 -2.559 2.8298 767.55 -71.47)" gradientUnits="userSpaceOnUse">
   <stop stop-color="#ffd116" offset="0"/>
   <stop stop-color="#ffd73b" offset=".14344"/>
   <stop stop-color="#fc0" offset=".2974"/>
   <stop stop-color="#e3a500" offset=".54329"/>
   <stop stop-color="#ffce06" offset=".76311"/>
   <stop stop-color="#f4ab00" offset="1"/>
  </linearGradient>
  <linearGradient id="aq" x1="367.55" x2="456.78" y1="911.97" y2="418.32" gradientUnits="userSpaceOnUse">
   <stop stop-color="#806600" offset="0"/>
   <stop stop-color="#806600" stop-opacity=".30961" offset="1"/>
  </linearGradient>
  <linearGradient id="ap" x1="113.59" x2="152.54" gradientTransform="matrix(1.3514 1.2221 -1.2122 1.3405 785.93 -66.522)" gradientUnits="userSpaceOnUse">
   <stop stop-color="#432527" offset="0"/>
   <stop stop-color="#2f1c22" offset=".7187"/>
   <stop stop-color="#643d3d" offset=".78787"/>
   <stop offset="1"/>
  </linearGradient>
  <linearGradient id="i" x2="0" y1="51.917" y2="54.063" gradientUnits="userSpaceOnUse" xlink:href="#m"/>
  <linearGradient id="am" x2="0" y1="54.053" y2="52.198" gradientUnits="userSpaceOnUse" xlink:href="#m"/>
  <linearGradient id="ak" x1="251.4" x2="597.1" gradientUnits="userSpaceOnUse" xlink:href="#o"/>
  <linearGradient id="ae" x2="0" y1="54.063" y2="52.134" gradientUnits="userSpaceOnUse" xlink:href="#m"/>
  <linearGradient id="l" x2="0" y1="15.591" y2="13.012" gradientUnits="userSpaceOnUse" xlink:href="#o"/>
  <linearGradient id="bc" x2="0" y1="220.78" y2="219.27" gradientTransform="matrix(2.8298 2.559 -2.559 2.8298 767.55 -71.47)" gradientUnits="userSpaceOnUse" xlink:href="#p"/>
  <linearGradient id="az" x2="0" y1="14.888" y2="16.472" gradientTransform="matrix(1.3514 1.2221 -1.2122 1.3405 761.53 -3.0604)" gradientUnits="userSpaceOnUse" xlink:href="#b"/>
  <linearGradient id="ay" x2="0" y1="14.888" y2="16.472" gradientTransform="matrix(1.3514 1.2221 -1.2122 1.3405 732.48 -29.326)" gradientUnits="userSpaceOnUse" xlink:href="#b"/>
  <linearGradient id="ax" x2="0" y1="14.888" y2="16.472" gradientTransform="matrix(1.3514 1.2221 -1.2122 1.3405 749.36 -50.988)" gradientUnits="userSpaceOnUse" xlink:href="#b"/>
  <linearGradient id="aw" x2="0" y1="14.888" y2="16.472" gradientTransform="matrix(1.3514 1.2221 -1.2122 1.3405 781.13 -22.361)" gradientUnits="userSpaceOnUse" xlink:href="#b"/>
  <linearGradient id="av" x2="0" y1="14.888" y2="16.472" gradientTransform="matrix(1.3514 1.2221 -1.2122 1.3405 800.35 -42.019)" gradientUnits="userSpaceOnUse" xlink:href="#b"/>
  <linearGradient id="au" x2="0" y1="14.888" y2="16.472" gradientTransform="matrix(1.3514 1.2221 -1.2122 1.3405 767.55 -71.472)" gradientUnits="userSpaceOnUse" xlink:href="#b"/>
  <linearGradient id="at" x1="4.2832" x2="75.217" gradientTransform="matrix(-1.2122 1.3405 -1.3514 -1.2221 1172 283.8)" gradientUnits="userSpaceOnUse" xlink:href="#p"/>
  <radialGradient id="g" cx="119.86" cy="13.548" r="1.24" gradientTransform="matrix(-.8346 .70149 -.70587 -.83981 229.46 -59.157)" gradientUnits="userSpaceOnUse">
   <stop offset="0"/>
   <stop stop-color="#666" offset=".44899"/>
   <stop stop-color="#d6d6d6" offset=".66919"/>
   <stop stop-color="#444" offset=".8619"/>
   <stop stop-color="#595959" offset=".90836"/>
   <stop stop-color="#e1e1e1" offset="1"/>
  </radialGradient>
  <radialGradient id="s" cx="119.86" cy="13.548" r="1.24" gradientTransform="matrix(-.8346 .70149 -.70587 -.83981 229.46 -59.157)" gradientUnits="userSpaceOnUse">
   <stop offset="0"/>
   <stop stop-color="#3e3e3e" offset=".34995"/>
   <stop stop-color="#d6d6d6" offset=".66919"/>
   <stop stop-color="#777" offset=".79182"/>
   <stop stop-color="#717171" offset=".85367"/>
   <stop stop-color="#e1e1e1" offset="1"/>
  </radialGradient>
  <radialGradient id="k" cx="119.53" cy="13.038" r="3.1028" gradientTransform="matrix(.026468 .55959 -.61304 .028997 124.34 -54.092)" gradientUnits="userSpaceOnUse">
   <stop stop-color="#fff" offset="0"/>
   <stop stop-color="#ccc" offset=".4785"/>
   <stop stop-color="#727272" offset=".67369"/>
   <stop stop-color="#505050" offset=".80341"/>
   <stop stop-color="#929292" offset="1"/>
  </radialGradient>
  <radialGradient id="j" cx="119.53" cy="13.038" r="3.1028" gradientTransform="matrix(.026468 .55959 -.61304 .028997 124.34 -54.092)" gradientUnits="userSpaceOnUse">
   <stop stop-color="#fff" offset="0"/>
   <stop stop-color="#ccc" offset=".30407"/>
   <stop stop-color="#727272" offset=".54893"/>
   <stop stop-color="#505050" offset=".71997"/>
   <stop stop-color="#929292" offset="1"/>
  </radialGradient>
  <radialGradient id="a" cx="1545.4" cy="516.51" r="10.057" gradientUnits="userSpaceOnUse">
   <stop offset="0"/>
   <stop offset=".16306"/>
   <stop stop-color="#eceddf" offset=".65705"/>
   <stop stop-color="#7e6d53" offset=".88942"/>
   <stop stop-color="#2d261d" offset="1"/>
  </radialGradient>
  <radialGradient id="ac" cx="84.53" cy="182.33" r="14.827" gradientTransform="matrix(3.2794 3.1008 -4.704 4.975 1132.3 -521.29)" gradientUnits="userSpaceOnUse">
   <stop stop-color="#333" offset="0"/>
   <stop offset="1"/>
  </radialGradient>
  <radialGradient id="u" cx="38.923" cy="163.28" r="35.467" gradientTransform="matrix(-1.3535 1.4967 -.90241 -.81606 1104.1 211.42)" gradientUnits="userSpaceOnUse">
   <stop stop-color="#432527" offset="0"/>
   <stop stop-color="#2f1c22" offset=".5"/>
   <stop stop-color="#643d3d" offset=".82761"/>
   <stop offset="1"/>
  </radialGradient>
  <radialGradient id="ab" cx="119.85" cy="15.303" r="1.5098" gradientTransform="matrix(-1.4561 1.6102 -2.6108 -2.361 1119.5 7.0201)" gradientUnits="userSpaceOnUse" xlink:href="#c"/>
  <radialGradient id="aa" cx="119.85" cy="15.303" r="1.5098" gradientTransform="matrix(-1.4561 1.6102 -2.6108 -2.361 1090.4 -19.246)" gradientUnits="userSpaceOnUse" xlink:href="#c"/>
  <radialGradient id="z" cx="119.85" cy="15.303" r="1.5098" gradientTransform="matrix(-1.4561 1.6102 -2.6108 -2.361 1107.3 -40.908)" gradientUnits="userSpaceOnUse" xlink:href="#c"/>
  <radialGradient id="y" cx="119.85" cy="15.303" r="1.5098" gradientTransform="matrix(-1.4561 1.6102 -2.6108 -2.361 1139.1 -12.281)" gradientUnits="userSpaceOnUse" xlink:href="#c"/>
  <radialGradient id="x" cx="119.85" cy="15.303" r="1.5098" gradientTransform="matrix(-1.4561 1.6102 -2.6108 -2.361 1158.3 -31.938)" gradientUnits="userSpaceOnUse" xlink:href="#c"/>
  <radialGradient id="w" cx="119.85" cy="15.303" r="1.5098" gradientTransform="matrix(-1.4561 1.6102 -2.6108 -2.361 1125.5 -61.391)" gradientUnits="userSpaceOnUse" xlink:href="#c"/>
  <radialGradient id="v" cx="128.99" cy="28.002" r="20.177" gradientTransform="matrix(1.3885 1.1798 -2.0712 2.4376 792.77 -103.33)" gradientUnits="userSpaceOnUse" xlink:href="#r"/>
  <radialGradient id="t" cx="132.24" cy="25.342" r="20.177" gradientTransform="matrix(1.3514 1.2221 -2.0712 2.2904 801.56 -92.159)" gradientUnits="userSpaceOnUse" xlink:href="#r"/>
 </defs>
 <g transform="matrix(1.3514 1.2221 -1.2122 1.3405 771.08 -77.836)" fill-rule="evenodd">
  <path d="m103.66 48.437c0.63324-0.53013 4.5183-0.41981 5.3463-0.00836 2.2048 1.77 2.9628 7.7379-0.524 8.6301-1.0325 0.45305-2.9559 0.49095-4.8223 0-1.4425-0.26011-1.6756-1.1707-1.851-1.9484-0.31445-2.4664-0.00843-5.6059 1.851-6.6733z" fill="url(#h)" stroke="url(#f)" stroke-width=".3"/>
  <path d="m103.46 50.531c1.2665-0.384 4.0917-0.31404 4.9198 0.09742 1.9317 0.93948 1.6467 5.8136 0.09742 6.4298-1.0325 0.45305-2.9559 0.49095-4.8223 0-1.4425-0.26011-1.6756-1.1707-1.851-1.9484-0.31445-2.4664-0.20327-3.5113 1.6562-4.5788z" fill="url(#ao)" stroke="url(#e)" stroke-width=".3"/>
  <path d="m111.5 51.612h1.574c0.85632 0 1.5457 0.55161 1.5457 1.4079s-0.68937 1.3735-1.5457 1.3735h-1.574c-1.0974 0-1.5112-0.51716-1.5112-1.3735s0.48271-1.4079 1.5112-1.4079z" fill="url(#i)" stroke="#adadad" stroke-width=".111"/>
  <g transform="translate(-.13777 -14.466)">
   <path d="m103.66 47.197c0.63324-0.53013 4.5183-0.41981 5.3463-0.00836 2.2048 1.77 2.9628 8.9779-0.524 9.8701-1.0325 0.45305-2.9559 0.49095-4.8223 0-1.4425-0.26011-1.6756-1.1707-1.851-1.9484-0.31445-2.4664-0.00843-6.8458 1.851-7.9133z" fill="url(#h)" stroke="url(#f)" stroke-width=".3"/>
   <path d="m103.46 48.12c1.2665-0.384 4.0917-0.31404 4.9198 0.09742 1.9317 0.93948 1.6467 8.2246 0.09742 8.8408-1.0325 0.45305-2.9559 0.49095-4.8223 0-1.4425-0.26011-1.6756-1.1707-1.851-1.9484-0.31445-2.4664-0.20327-5.9224 1.6562-6.9898z" fill="url(#q)" stroke="url(#e)" stroke-width=".3"/>
   <path d="m111.5 51.612h1.574c0.85632 0 1.5457 0.55161 1.5457 1.4079s-0.68937 1.3735-1.5457 1.3735h-1.574c-1.0974 0-1.5112-0.51716-1.5112-1.3735s0.48271-1.4079 1.5112-1.4079z" fill="url(#i)" stroke="#adadad" stroke-width=".111"/>
  </g>
  <g transform="matrix(1 0 0 -1 -.82664 76.696)">
   <path d="m103.31 48.437c0.63324-0.53013 4.5183-0.41981 5.3463-0.00836 2.2048 1.77 3.1695 9.0468-0.31734 9.9389-1.0325 0.45305-2.8181 0.14651-4.6846-0.34443-1.4425-0.26011-1.6756-2.1351-1.851-2.9128-0.31445-2.4664-0.35286-5.6059 1.5066-6.6733z" fill="url(#h)" stroke="url(#f)" stroke-width=".3"/>
   <path d="m103.19 50.049c1.2665-0.384 4.0917-0.31404 4.9198 0.09742 1.9317 0.93948 1.9222 7.6735 0.37297 8.2897-1.0325 0.45305-2.9559 0.49095-4.8223 0-1.4425-0.26011-1.6756-2.5484-1.851-3.3262-0.31445-2.4664-0.47882-3.9935 1.3806-5.061z" fill="url(#an)" stroke="url(#e)" stroke-width=".3"/>
   <path d="m111.5 51.612h1.574c0.85632 0 1.5457 0.55161 1.5457 1.4079s-0.68937 1.3735-1.5457 1.3735h-1.574c-1.0974 0-1.5112-0.51716-1.5112-1.3735s0.48271-1.4079 1.5112-1.4079z" fill="url(#am)" stroke="#adadad" stroke-width=".111"/>
  </g>
 </g>
 <path d="m925.85 82.903c-2.6423-1.9024-5.0606-1.1173-6.9511 0.5571-19.76 23.986-46.37 55.548-59.279 71.959-5.9397 7.3855-5.8868 16.27-9.625 24.836l8.1928 7.4088c-3.7902-5.0696-3.2539-6.8028-0.15421-6.5358 26.633-42.128 44.878 11.304 26.938 10.958-2.6798 3.5771-13.283 7.634-11.473 10.094 0.57643 3.0573 6.3303 3.4111 0.90632 0.1482l5.1928 3.5804c9.1949-5.6625 23.945-2.5001 29.16-9.4112 21.176-21.988 49.68-48.766 60.698-63.136 1.6239-1.2699 3.7394-15.801 1.9508-17.497l-45.557-32.962z" fill="url(#t)" fill-rule="evenodd"/>
 <path d="m636.02 513.07c6.9304-37.904 112.36-154.24 139.75-185.41 23.241-26.453 88.401-103.4 104.12-122.88l-8.077-10.52-281.41 281.22 45.615 37.595z" fill="url(#ap)" fill-rule="evenodd" stroke="#28220b" stroke-width="1.2702"/>
 <g transform="matrix(1.7886 0 0 1.7886 -352.64 -410.68)" fill-rule="evenodd">
  <path d="m466.72 470.62c-7.0157-0.01974-14.36 2.0577-22.688 6.625-30.451 20.613-24.805 41.238-50.531 61.438-31.498 29.142-97.378 48.946-140.69 90.41 0 73.443-3.6301 63.718 24.41 96.715 27.748 29.492 41.621 41.1 67.594 61.594 50.975 38.008 96.246 34.108 129.97-1.0938 42.939-47.263 22.889-92.374 61.438-137.19 12.128-12.852 29.946-21.99 43.062-39.594 5.2882-7.2611 13.137-10.362 8.9277-59.094l-63.271-45.656c-24.513-20.41-40.29-34.106-58.219-34.156z" fill="url(#al)" stroke="url(#ak)" stroke-width="1.4932"/>
  <path transform="matrix(1.5821 1.4307 -1.4307 1.5821 624.3 214.65)" d="m66.96 151.3c-0.89712-0.15468-1.8175-0.23459-2.7597-0.23459s-1.8672 0.07991-2.7643 0.23459l-0.53055 47.418c0.89691 0.15462 1.8223 0.2346 2.7643 0.2346s1.8628-0.07998 2.7597-0.2346l0.53055-47.418z" fill="#c5a97b" filter="url(#n)" stroke="#28220b" stroke-width=".2"/>
  <path d="m441.08 586.93 38.615 34.783 13.636-15.138c0.54387-2.4705 1.0403-4.3068 1.0198-6.8233l-35.784-32.234-17.486 19.412z" fill="url(#aj)" stroke="#28220b" stroke-width=".31311"/>
  <path d="m520.04 605.47c0.25856-1.2125 0.44027-2.4399 0.56285-3.669l-71.399-65.583c-1.2098 0.24508-2.4072 0.55592-3.5868 0.93442l74.423 68.317z" fill="url(#ai)" stroke="#28220b" stroke-width=".3135"/>
 </g>
 <path transform="matrix(1.7886 0 0 1.7886 -352.64 -410.68)" d="m474.62 529.28c-17.645 0-31.969 14.324-31.969 31.969 0 5.3998 5.8517 20.507 8.2188 24.969 1.7249-10.254 21.762-16.238 28.156-16.663 6.2374-0.41473 26.876-0.49905 27.75 9.6005 1.4795-3.6804-0.1875-13.699-0.1875-17.906 0-17.645-14.324-31.969-31.969-31.969z" fill-rule="evenodd" filter="url(#bd)" opacity=".63082"/>
 <path d="m632.08 483.51-70.655 79.49-42.991-38.877 71.41-76.675c-61-50.79-91.751-78.277-144.71-49.232-54.465 36.868-44.394 73.776-90.407 109.91-56.337 52.124-137.61 41.942-215.08 116.11-70.595 91.07-43.059 159.54 7.0926 218.56 49.63 52.75 74.459 73.526 120.91 110.18 91.174 67.982 172.13 61.016 232.44-1.9452 76.8-84.534 40.965-165.24 109.91-245.4 21.693-22.986 53.569-39.348 77.028-70.833 30.922-60.385 6.8077-90.137-54.959-151.28zm-94.989 62.511c24.74 22.372 26.807 60.425 4.6149 84.965s-60.26 26.298-85 3.9259-26.807-60.425-4.615-84.965 60.26-26.298 85-3.926z" fill="url(#ar)" fill-rule="evenodd" stroke="url(#aq)" stroke-width="2.6707"/>
 <path transform="matrix(-.53649 .59326 -.59809 -.54086 1419.9 110.48)" d="m1319.3 449.69a100.3 100.3 0 1 1 -200.6 0 100.3 100.3 0 1 1 200.6 0z" fill="none" stroke="#000" stroke-width=".69732"/>
 <path transform="matrix(-.42138 .46597 -.46976 -.42481 1221.8 213.46)" d="m1319.3 449.69a100.3 100.3 0 1 1 -200.6 0 100.3 100.3 0 1 1 200.6 0z" fill="none" stroke="#28220b" stroke-width=".8878"/>
 <path d="m552.37 640.63c27.451-30.356 24.905-77.521-5.6979-105.2s-77.803-25.495-105.25 4.8614-24.873 77.52 5.7297 105.19 77.771 25.496 105.22-4.86zm-3.3683-3.046c-25.811 28.543-70.042 30.57-98.818 4.5482s-31.193-70.233-5.3811-98.776 70.057-30.586 98.833-4.5648 31.177 70.25 5.366 98.792z" fill="#b09280" fill-rule="evenodd" stroke="#28220b" stroke-width="1.0888"/>
 <path d="m562.77 568.39 316.41-366.45-37.755-34.142-329.51 352.92 50.858 47.666z" fill="url(#as)" fill-rule="evenodd" stroke="#28220b" stroke-width="1.2702"/>
 <path d="m970.46 119.06c3.07-3.7821 1.9686-4.6645-0.63604-7.2416l-44.807-40.52c-4.4353-3.3525-6.0567-5.4422-11.645-1.4692-48.976 59.775-52.589 61.536-63.005 76.533-7.5151 14.281-5.7904 18.166-8.9356 21.44l37.755 34.142 0.81052-1.6448 21.299-10.09c25.686-23.772 46.11-47.434 69.164-71.151z" fill="url(#u)" fill-rule="evenodd" stroke="url(#at)" stroke-width=".56002"/>
 <path d="m561.56 566.09 315.55-364.33-34.573-31.265-328.21 351.22 47.226 44.375z" fill="none" stroke="#fff6d5" stroke-width="1.7458"/>
 <g transform="matrix(-1.3514 -1.2221 -1.2122 1.3405 1136.1 250.14)" fill-rule="evenodd">
  <path d="m103.66 48.437c0.63324-0.53013 4.5183-0.41981 5.3463-0.00836 2.2048 1.77 2.9628 7.7379-0.524 8.6301-1.0325 0.45305-2.9559 0.49095-4.8223 0-1.4425-0.26011-1.6756-1.1707-1.851-1.9484-0.31445-2.4664-0.00843-5.6059 1.851-6.6733z" fill="url(#ah)" stroke="url(#f)" stroke-width=".3"/>
  <path d="m103.46 50.531c1.2665-0.384 4.0917-0.31404 4.9198 0.09742 1.9317 0.93948 1.6467 5.8136 0.09742 6.4298-1.0325 0.45305-2.9559 0.49095-4.8223 0-1.4425-0.26011-1.6756-1.1707-1.851-1.9484-0.31445-2.4664-0.20327-3.5113 1.6562-4.5788z" fill="url(#q)" stroke="url(#e)" stroke-width=".3"/>
  <path d="m111.5 51.612h1.574c0.85632 0 1.5457 0.55161 1.5457 1.4079s-0.68937 1.3735-1.5457 1.3735h-1.574c-1.0974 0-1.5112-0.51716-1.5112-1.3735s0.48271-1.4079 1.5112-1.4079z" fill="url(#i)" stroke="#adadad" stroke-width=".111"/>
  <g transform="translate(-.13777 -14.466)">
   <path d="m103.66 47.197c0.63324-0.53013 4.1738-0.21315 5.0019 0.1983 2.2048 1.77 3.3073 8.7712-0.17957 9.6634-1.0325 0.45305-2.9559 0.49095-4.8223 0-1.4425-0.26011-1.6756-1.1707-1.851-1.9484-0.31445-2.4664-0.00843-6.8458 1.851-7.9133z" fill="url(#h)" stroke="url(#f)" stroke-width=".3"/>
   <path d="m103.46 49.291c1.2665-0.384 4.0917-0.31403 4.9198 0.09742 1.9317 0.93948 1.6467 7.0535 0.09742 7.6697-1.0325 0.45305-2.4048 0.49095-4.2712 0-1.4425-0.26011-1.9511-0.68847-2.1265-1.4662-0.31445-2.4664-0.47882-5.2335 1.3806-6.301z" fill="url(#ag)" stroke="url(#e)" stroke-width=".3"/>
   <path d="m111.5 51.612h1.574c0.85632 0 1.5457 0.55161 1.5457 1.4079s-0.68937 1.3735-1.5457 1.3735h-1.574c-1.0974 0-1.5112-0.51716-1.5112-1.3735s0.48271-1.4079 1.5112-1.4079z" fill="url(#i)" stroke="#adadad" stroke-width=".111"/>
  </g>
  <g transform="matrix(1 0 0 -1 -.82664 76.696)">
   <path d="m103.31 45.806c0.63324-0.53013 4.5183-0.41981 5.3463-0.00836 2.8247 1.7011 3.7206 13.055-0.66177 14.291-1.0325 0.45305-2.4737-1.5757-4.3401-2.0666-1.4425-0.26011-1.6756-2.1351-1.851-2.9128-0.31445-2.4664-0.35286-8.2362 1.5066-9.3037z" fill="url(#h)" stroke="url(#f)" stroke-width=".3"/>
   <path d="m103.19 46.542c1.2665-0.384 4.0917-0.31404 4.9198 0.09742 1.9317 0.93948 1.9222 12.739 0.37297 13.356-1.0325 0.45305-2.9559 0.49095-4.8223 0-1.4425-0.26011-1.6756-4.1072-1.851-4.8849-0.31445-2.4664-0.47882-7.5007 1.3806-8.5681z" fill="url(#af)" stroke="url(#e)" stroke-width=".3"/>
   <path d="m111.5 51.612h1.574c0.85632 0 1.5457 0.55161 1.5457 1.4079s-0.68937 1.3735-1.5457 1.3735h-1.574c-1.0974 0-1.5112-0.51716-1.5112-1.3735s0.48271-1.4079 1.5112-1.4079z" fill="url(#ae)" stroke="#adadad" stroke-width=".111"/>
  </g>
 </g>
 <path d="m921.85 70.403c-2.6423-1.9024-5.0606-1.1173-6.9511 0.55709-19.76 23.986-48.491 58.023-61.4 74.434-5.9397 7.3855-5.1797 13.441-8.9179 22.007l9.6071 7.7624c-3.7902-5.0696-3.2539-6.8028-0.15422-6.5358 2.629 1.5542 5.9528-2.0182 9.2433-5.0431-1.1827-3.9908 1.5571-5.6117 6.2138-6.1074 3.6024-2.1413 5.9141-6.0793 13.324-3.1041 1.6912-1.0821 4.0831-2.9324 5.9217-1.2697 2.1213 1.9807 0.39222 4.3642-0.51612 6.158 3.703 7.0744-0.02554 9.7311-1.795 13.53-0.02638 4.6829-1.3644 7.5715-5.4537 6.7948-2.6798 3.5771-5.8587 7.2804-4.0488 9.7404 0.57643 3.0573-0.38718 4.4718-5.8112 1.2089l8.1928 7.4088c9.1949-5.6625 20.238-7.0356 25.453-13.947l64.941-65.964c1.6239-1.2699 0.55738-4.1336-1.2312-5.83l-46.618-41.801z" fill="url(#v)" fill-rule="evenodd" stroke="#efe7c4" stroke-width="2.722"/>
 <path transform="matrix(1.5203 1.3748 -1.3637 1.508 664.69 25.805)" d="m134.47 153.38a2.2044 2.2044 0 1 1 -4.4088 0 2.2044 2.2044 0 1 1 4.4088 0z" fill="#fff" fill-rule="evenodd" stroke="#b3b3b3" stroke-width=".35556"/>
 <path transform="matrix(4.5047 4.0736 -4.0407 4.4683 424.95 -452.36)" d="m121.1 13.682a1.24 1.178 0 1 1 -2.4799 0 1.24 1.178 0 1 1 2.4799 0z" fill="url(#g)" fill-rule="evenodd" stroke="url(#d)" stroke-width=".012"/>
 <path d="m912.76 93.083 0.46815 0.42333c0.60743 0.54931 0.14577 1.0136-0.39909 1.6161-0.68713 1.058-1.377 1.869-0.80684 3.3249-0.92064 1.018-2.6067 0.54289-3.2142-0.0064l-0.46813-0.42335c-0.60743-0.54929-1.2677-2.112-0.39841-3.2605 1.5632 0.7412 2.2808-0.39034 3.2971-1.073 0.54486-0.60253 0.91397-1.1505 1.5214-0.60117z" fill="url(#w)" fill-rule="evenodd" stroke="url(#au)" stroke-width=".09073"/>
 <path transform="matrix(4.5047 4.0736 -4.0407 4.4683 457.75 -422.91)" d="m121.1 13.682a1.24 1.178 0 1 1 -2.4799 0 1.24 1.178 0 1 1 2.4799 0z" fill="url(#g)" fill-rule="evenodd" stroke="url(#d)" stroke-width=".012"/>
 <path d="m945.56 122.54 0.46813 0.42334c0.60743 0.54929 0.14579 1.0136-0.39909 1.6161-0.68711 1.058-1.377 1.869-0.80684 3.3249-0.92065 1.018-2.6067 0.5429-3.2142-0.00641l-0.46813-0.42334c-0.60743-0.54929-1.2677-2.112-0.39841-3.2604 1.5632 0.74118 2.2808-0.39036 3.2971-1.073 0.54486-0.60251 0.91397-1.1505 1.5214-0.60116z" fill="url(#x)" fill-rule="evenodd" stroke="url(#av)" stroke-width=".09073"/>
 <path transform="matrix(4.5047 4.0736 -4.0407 4.4683 438.53 -403.25)" d="m121.1 13.682a1.24 1.178 0 1 1 -2.4799 0 1.24 1.178 0 1 1 2.4799 0z" fill="url(#g)" fill-rule="evenodd" stroke="url(#d)" stroke-width=".012"/>
 <path d="m926.35 142.19 0.46815 0.42335c0.60741 0.54928 0.14577 1.0135-0.39909 1.6161-0.68713 1.058-1.377 1.869-0.80684 3.3249-0.92065 1.018-2.6067 0.54289-3.2142-0.00641l-0.46813-0.42335c-0.60743-0.54928-1.2677-2.112-0.39841-3.2605 1.5632 0.7412 2.2808-0.39034 3.2971-1.073 0.54486-0.60253 0.91395-1.1505 1.5214-0.60117z" fill="url(#y)" fill-rule="evenodd" stroke="url(#aw)" stroke-width=".09073"/>
 <path transform="matrix(4.5047 4.0736 -4.0407 4.4683 406.76 -431.88)" d="m121.1 13.682a1.24 1.178 0 1 1 -2.4799 0 1.24 1.178 0 1 1 2.4799 0z" fill="url(#g)" fill-rule="evenodd" stroke="url(#d)" stroke-width=".012"/>
 <path d="m894.57591,113.56691 .46815.42335c.60743.54929.14577,1.01356-.39909,1.61609-.68713,1.05802-1.37697,1.869-.80686,3.3249-.92063,1.01806-2.60672.54289-3.21415-.0064l-.46813-.42334c-.60743-.54931-1.26771-2.11203-.39843-3.26047 1.56317.7412 2.28082-.39033 3.29713-1.07295 .54486-.60252.91395-1.15048 1.52138-.60118z" fill="url(#z)" fill-rule="evenodd" stroke="url(#ax)" stroke-width=".09073"/>
 <path transform="matrix(4.5047 4.0736 -4.0407 4.4683 389.88 -410.22)" d="m121.1 13.682a1.24 1.178 0 1 1 -2.4799 0 1.24 1.178 0 1 1 2.4799 0z" fill="url(#s)" fill-rule="evenodd" stroke="url(#d)" stroke-width=".012"/>
 <path d="m877.69425,135.22906 .46815.42334c.60741.54931.14577,1.01356-.39909,1.61607-.68713,1.05803-1.37699,1.86903-.80686,3.32492-.92063,1.01807-2.60672.5429-3.21415-.00639l-.46815-.42333c-.60741-.5493-1.26769-2.11206-.39839-3.26047 1.56314.74118 2.2808-.39036 3.2971-1.07298 .54487-.60251.91396-1.15045 1.52139-.60116z" fill="url(#aa)" fill-rule="evenodd" stroke="url(#ay)" stroke-width=".09073"/>
 <path transform="matrix(4.5047 4.0736 -4.0407 4.4683 418.93 -383.95)" d="m121.1 13.682a1.24 1.178 0 1 1 -2.4799 0 1.24 1.178 0 1 1 2.4799 0z" fill="url(#g)" fill-rule="evenodd" stroke="url(#d)" stroke-width=".012"/>
 <path d="m906.73942,161.4948 .46813.42335c.60743.54929.14579,1.01354-.39909,1.61606-.68713,1.05803-1.37697,1.86902-.80684,3.32493-.92064,1.01806-2.60674.5429-3.21417-.00641l-.46813-.42335c-.60743-.54928-1.26771-2.11205-.39841-3.26044 1.56317.74118 2.28082-.39036 3.29711-1.07297 .54486-.60253.91397-1.15047 1.5214-.60117z" fill="url(#ab)" fill-rule="evenodd" stroke="url(#az)" stroke-width=".09073"/>
 <path transform="matrix(1.6766 1.5162 -1.504 1.6631 638.86 -41.458)" d="m134.47 153.38a2.2044 2.2044 0 1 1 -4.4088 0 2.2044 2.2044 0 1 1 4.4088 0z" fill="#fff" fill-rule="evenodd" stroke="#b3b3b3" stroke-width=".35556"/>
 <path transform="matrix(1.5985 1.4455 -1.4338 1.5856 696.92 -58.313)" d="m134.47 153.38a2.2044 2.2044 0 1 1 -4.4088 0 2.2044 2.2044 0 1 1 4.4088 0z" fill="#fff" fill-rule="evenodd" stroke="#b3b3b3" stroke-width=".35556"/>
 <path transform="matrix(1.4422 1.3042 -1.2936 1.4305 730.49 -53.878)" d="m134.47 153.38a2.2044 2.2044 0 1 1 -4.4088 0 2.2044 2.2044 0 1 1 4.4088 0z" fill="#fff" fill-rule="evenodd" stroke="#b3b3b3" stroke-width=".35556"/>
 <path transform="matrix(1.2858 1.1628 -1.1534 1.2755 767.9 -53.69)" d="m134.47 153.38a2.2044 2.2044 0 1 1 -4.4088 0 2.2044 2.2044 0 1 1 4.4088 0z" fill="#fff" fill-rule="evenodd" stroke="#b3b3b3" stroke-width=".35556"/>
 <path transform="matrix(1.6376 1.4809 -1.4689 1.6243 613.17 24.846)" d="m134.47 153.38a2.2044 2.2044 0 1 1 -4.4088 0 2.2044 2.2044 0 1 1 4.4088 0z" fill="#fff" fill-rule="evenodd" stroke="#b3b3b3" stroke-width=".35556"/>
 <path transform="rotate(42.123)" d="m739.49-404.16h45.205a1.245 1.245 0 0 1 1.245 1.245 1.245 1.245 0 0 1 -1.245 1.245h-45.205a1.245 1.245 0 0 1 -1.245 -1.245 1.245 1.245 0 0 1 1.245 -1.245" fill="#fff6d5" fill-rule="evenodd" stroke="#aca793" stroke-width=".72586"/>
 <path transform="rotate(42.123)" d="m739.49-371.04h45.205a1.245 1.245 0 0 1 1.245 1.245 1.245 1.245 0 0 1 -1.245 1.245h-45.205a1.245 1.245 0 0 1 -1.245 -1.245 1.245 1.245 0 0 1 1.245 -1.245" fill="#fff6d5" fill-rule="evenodd" stroke="#aca793" stroke-width=".72586"/>
 <path transform="rotate(42.123)" d="m738.48-338.66h48.217a1.2353 1.2353 0 0 1 1.2353 1.2353 1.2353 1.2353 0 0 1 -1.2353 1.2353h-48.217a1.2353 1.2353 0 0 1 -1.2353 -1.2353 1.2353 1.2353 0 0 1 1.2353 -1.2353" fill="#fff6d5" fill-rule="evenodd" stroke="#aca793" stroke-width=".74536"/>
 <path transform="rotate(42.123)" d="m737.98-307.53h48.719a1.2337 1.2337 0 0 1 1.2337 1.2337 1.2337 1.2337 0 0 1 -1.2337 1.2337h-48.719a1.2337 1.2337 0 0 1 -1.2337 -1.2337 1.2337 1.2337 0 0 1 1.2337 -1.2337" fill="#fff6d5" fill-rule="evenodd" stroke="#aca793" stroke-width=".74854"/>
 <path transform="rotate(42.123)" d="m737.23-278.39h50.727a1.2275 1.2275 0 0 1 1.2275 1.2275 1.2275 1.2275 0 0 1 -1.2275 1.2275h-50.727a1.2275 1.2275 0 0 1 -1.2275 -1.2275 1.2275 1.2275 0 0 1 1.2275 -1.2275" fill="#fff6d5" fill-rule="evenodd" stroke="#aca793" stroke-width=".76106"/>
 <path transform="rotate(42.123)" d="m736.98-250.25h51.982a1.2236 1.2236 0 0 1 1.2236 1.2236 1.2236 1.2236 0 0 1 -1.2236 1.2236h-51.982a1.2236 1.2236 0 0 1 -1.2236 -1.2236 1.2236 1.2236 0 0 1 1.2236 -1.2236" fill="#fff6d5" fill-rule="evenodd" stroke="#aca793" stroke-width=".76874"/>
 <path transform="rotate(42.123)" d="m736.73-222.36h52.735a1.2214 1.2214 0 0 1 1.2214 1.2214 1.2214 1.2214 0 0 1 -1.2214 1.2214h-52.735a1.2214 1.2214 0 0 1 -1.2214 -1.2214 1.2214 1.2214 0 0 1 1.2214 -1.2214" fill="#fff6d5" fill-rule="evenodd" stroke="#aca793" stroke-width=".77329"/>
 <path transform="rotate(42.123)" d="m735.97-197.21h54.241a1.2169 1.2169 0 0 1 1.2169 1.2169 1.2169 1.2169 0 0 1 -1.2169 1.2169h-54.241a1.2169 1.2169 0 0 1 -1.2169 -1.2169 1.2169 1.2169 0 0 1 1.2169 -1.2169" fill="#fff6d5" fill-rule="evenodd" stroke="#aca793" stroke-width=".78227"/>
 <path transform="rotate(42.123)" d="m735.97-173.06h54.743a1.2154 1.2154 0 0 1 1.2154 1.2154 1.2154 1.2154 0 0 1 -1.2154 1.2154h-54.743a1.2154 1.2154 0 0 1 -1.2154 -1.2154 1.2154 1.2154 0 0 1 1.2154 -1.2154" fill="#fff6d5" fill-rule="evenodd" stroke="#aca793" stroke-width=".78523"/>
 <path transform="rotate(42.123)" d="m735.22-149.65h55.999a1.2118 1.2118 0 0 1 1.2118 1.2118 1.2118 1.2118 0 0 1 -1.2118 1.2118h-55.999a1.2118 1.2118 0 0 1 -1.2118 -1.2118 1.2118 1.2118 0 0 1 1.2118 -1.2118" fill="#fff6d5" fill-rule="evenodd" stroke="#aca793" stroke-width=".79256"/>
 <path transform="rotate(42.123)" d="m735.22-127.49h55.999a1.2118 1.2118 0 0 1 1.2118 1.2118 1.2118 1.2118 0 0 1 -1.2118 1.2118h-55.999a1.2118 1.2118 0 0 1 -1.2118 -1.2118 1.2118 1.2118 0 0 1 1.2118 -1.2118" fill="#fff6d5" fill-rule="evenodd" stroke="#aca793" stroke-width=".79256"/>
 <path transform="rotate(42.123)" d="m735.22-107.07h57.003a1.2089 1.2089 0 0 1 1.2089 1.2089 1.2089 1.2089 0 0 1 -1.2089 1.2089h-57.003a1.2089 1.2089 0 0 1 -1.2089 -1.2089 1.2089 1.2089 0 0 1 1.2089 -1.2089" fill="#fff6d5" fill-rule="evenodd" stroke="#aca793" stroke-width=".79835"/>
 <path transform="rotate(42.123)" d="m734.72-86.643h58.258a1.2053 1.2053 0 0 1 1.2053 1.2053 1.2053 1.2053 0 0 1 -1.2053 1.2053h-58.258a1.2053 1.2053 0 0 1 -1.2053 -1.2053 1.2053 1.2053 0 0 1 1.2053 -1.2053" fill="#fff6d5" fill-rule="evenodd" stroke="#aca793" stroke-width=".8055"/>
 <path transform="rotate(42.123)" d="m733.71-67.466h60.015a1.2004 1.2004 0 0 1 1.2004 1.2004 1.2004 1.2004 0 0 1 -1.2004 1.2004h-60.015a1.2004 1.2004 0 0 1 -1.2004 -1.2004 1.2004 1.2004 0 0 1 1.2004 -1.2004" fill="#fff6d5" fill-rule="evenodd" stroke="#aca793" stroke-width=".81535"/>
 <path transform="rotate(42.123)" d="m733.71-51.032h60.015a1.2004 1.2004 0 0 1 1.2004 1.2004 1.2004 1.2004 0 0 1 -1.2004 1.2004h-60.015a1.2004 1.2004 0 0 1 -1.2004 -1.2004 1.2004 1.2004 0 0 1 1.2004 -1.2004" fill="#fff6d5" fill-rule="evenodd" stroke="#aca793" stroke-width=".81535"/>
 <path transform="rotate(42.123)" d="m733.71-32.606h60.015a1.2004 1.2004 0 0 1 1.2004 1.2004 1.2004 1.2004 0 0 1 -1.2004 1.2004h-60.015a1.2004 1.2004 0 0 1 -1.2004 -1.2004 1.2004 1.2004 0 0 1 1.2004 -1.2004" fill="#fff6d5" fill-rule="evenodd" stroke="#aca793" stroke-width=".81535"/>
 <path transform="rotate(42.123)" d="m733.71-17.168h60.015a1.2004 1.2004 0 0 1 1.2004 1.2004 1.2004 1.2004 0 0 1 -1.2004 1.2004h-60.015a1.2004 1.2004 0 0 1 -1.2004 -1.2004 1.2004 1.2004 0 0 1 1.2004 -1.2004" fill="#fff6d5" fill-rule="evenodd" stroke="#aca793" stroke-width=".81535"/>
 <path transform="rotate(42.123)" d="m733.71-2.2279h60.015a1.2004 1.2004 0 0 1 1.2004 1.2004 1.2004 1.2004 0 0 1 -1.2004 1.2004h-60.015a1.2004 1.2004 0 0 1 -1.2004 -1.2004 1.2004 1.2004 0 0 1 1.2004 -1.2004" fill="#fff6d5" fill-rule="evenodd" stroke="#aca793" stroke-width=".81535"/>
 <path transform="rotate(42.123)" d="m733.71 12.961h60.015a1.2004 1.2004 0 0 1 1.2004 1.2004 1.2004 1.2004 0 0 1 -1.2004 1.2004h-60.015a1.2004 1.2004 0 0 1 -1.2004 -1.2004 1.2004 1.2004 0 0 1 1.2004 -1.2004" fill="#fff6d5" fill-rule="evenodd" stroke="#aca793" stroke-width=".81535"/>
 <path transform="rotate(42.123)" d="m733.71 26.407h60.015a1.2004 1.2004 0 0 1 1.2004 1.2004 1.2004 1.2004 0 0 1 -1.2004 1.2004h-60.015a1.2004 1.2004 0 0 1 -1.2004 -1.2004 1.2004 1.2004 0 0 1 1.2004 -1.2004" fill="#fff6d5" fill-rule="evenodd" stroke="#aca793" stroke-width=".81535"/>
 <g transform="matrix(2.8298 2.559 -2.559 2.8298 767.55 -71.47)" fill="none" filter="url(#n)" stroke="#000" stroke-width=".2">
  <path d="m56.938 178.22-0.4375 12.062-0.5 29"/>
  <path d="m59.562 177.47-0.125 13.875-0.1875 28.125"/>
  <path d="m62.5 177.22-0.25 14.438 0.3125 27.938"/>
  <path d="m64.812 177.22v14.625l0.25 27.75"/>
  <path d="m67.625 177.09 0.25 14.25 0.4375 28.188"/>
  <path d="m70.75 178.09 0.3125 11.938 0.625 29.312"/>
 </g>
 <path d="m362.08 714.14c89.703-99.541 486.33-533.68 488.59-536 3.2548-3.3442 22.308-34.633 44.631-62.552" fill="none" stroke="#fff" stroke-width=".38153"/>
 <path d="m371.4 723.11c93.344-107.24 483.51-537.76 485.13-539.62 1.7634-2.0188 28.284-45.396 56.254-87.791" fill="none" stroke="#fff" stroke-width=".38153"/>
 <path d="m378.8 728.62 484.78-539.66c27.014-20.26 53.57-43.348 80.249-65.671" fill="none" stroke="#fff" stroke-width=".38153"/>
 <path d="m387.44 737.32 481.48-543.31c18.652-17.328 30.535-29.448 55.956-51.983" fill="none" stroke="#fff" stroke-width=".38153"/>
 <path d="m397.98 745.62 507.66-584.31" fill="none" stroke="#fff" stroke-width=".38153"/>
 <path d="m352.91 705.88 525.2-568.17" fill="none" stroke="#fff" stroke-width=".38153"/>
 <path transform="matrix(5.2681 4.764 -4.764 5.2681 614.33 -238.55)" d="m68.50993,6.55512c-.06598-.04416-.05781-.14002-.0097-.19388 .07504-.084.20788-.06917.28252.00683 .10277.10465.08084.27626-.02337.37116-.13382.12187-.34486.09266-.4598-.0399-.14115-.1628-.10457-.41358.05643-.54844 .19167-.16054.48237-.11654.63708.07297 .06329.07753.10128.17412.10924.27379" fill="none" stroke="#f4eed7" stroke-width=".06446"/>
 <path transform="matrix(1.4632 1.3231 -1.3124 1.4513 788.07 -55.372)" d="m121.1 13.682a1.24 1.24 0 1 1 -2.4799 0 1.24 1.24 0 1 1 2.4799 0z" fill="url(#k)" fill-rule="evenodd" stroke="#cfdae5" stroke-width=".04618"/>
 <path d="m925.85 141.51c0.29741-0.43126 0.92909-0.36857 1.28-0.0462 0.54731 0.50279 0.43727 1.3778-0.07099 1.8632-0.69987 0.6684-1.83 0.50799-2.4465-0.18821-0.79176-0.89406-0.57971-2.2837 0.3054-3.0298 1.087-0.91632 2.7382-0.65199 3.6131 0.42262 1.0416 1.2792 0.7246 3.1931-0.53983 4.1964-1.4711 1.1672-3.6484 0.79746-4.7796-0.65703-1.2932-1.6627 1.2005-2.9835 1.915-3.3622 1.4107-0.74761 2.5343 0.43867 3.228 0.66245 2.4399 0.78714-0.08827 2.8849-0.83421 3.6769-1.6605 1.763-4.6314-1.8958-6.0684-4.3027" fill="none" stroke="#f4eed7" stroke-width=".24809"/>
 <path transform="matrix(1.4632 1.3231 -1.3124 1.4513 768.86 -35.714)" d="m121.1 13.682a1.24 1.24 0 1 1 -2.4799 0 1.24 1.24 0 1 1 2.4799 0z" fill="url(#k)" fill-rule="evenodd" stroke="#cfdae5" stroke-width=".04618"/>
 <path d="m912.23 93.184c-1.5905-0.19029-0.71641 0.62735 0.01204 1.7826 0.51299 0.81358 2.4851 0.82202 3.2838-0.07197 2.3436-3.41-1.3594-4.9283-4.355-3.3477-2.2689 0.69998-2.227 5.0455 2.1426 7.4595 2.1019 1.1612 9.674-2.0293 6.8772-5.0835" fill="none" stroke="#fff6d5" stroke-width=".49599"/>
 <path transform="matrix(1.4632 1.3231 -1.3124 1.4513 755.27 -84.825)" d="m121.1 13.682a1.24 1.24 0 1 1 -2.4799 0 1.24 1.24 0 1 1 2.4799 0z" fill="url(#j)" fill-rule="evenodd" stroke="url(#l)" stroke-width=".04618"/>
 <path d="m894.11 113.03c-1.3984 0.27135-1.5706 2.0676-0.94751 3.2036 0.566 1.0319 3.0957 0.93852 3.8051 0.31644 0.66502-0.58314 0.75418-2.2775 0.26809-2.9937-0.53499-0.78832-2.7702-2.1284-4.7556-0.50913-1.5236 1.2426 0.16243 3.6631 1.6623 4.5354 2.8779 0.9217 6.28-0.79518 4.3547-5.2087-2.7343-5.0326-6.5712-1.1735-7.93 0.61162-0.92029 1.209-2.2315 4.1952 0.46026 5.7723" fill="none" stroke="#fff6d5" stroke-width=".45784"/>
 <path transform="matrix(1.4632 1.3231 -1.3124 1.4513 737.09 -64.341)" d="m121.1 13.682a1.24 1.24 0 1 1 -2.4799 0 1.24 1.24 0 1 1 2.4799 0z" fill="url(#j)" fill-rule="evenodd" stroke="url(#l)" stroke-width=".04618"/>
 <path d="m877.01 136.11c-0.03009 0.32168-0.99709 3.0082-0.70355 2.9947 0.45787-0.02107 2.0428-2.9446 1.9946-3.3754-0.06636-0.59314-1.142-1.9604-1.7091-1.8753-0.72837 0.10936-1.9132 0.62421-1.7901 1.3274 0.15128 0.86366 2.788 4.1661 3.6271 4.0043 0.99897-0.19261 1.6328-2.0139 1.432-2.9889-0.23357-1.1344-1.5397-3.7557-2.6504-3.5157-1.2698 0.27433-2.0492 2.6493-1.7698 3.8958 0.3149 1.4052 1.3577 2.3055 2.7399 1.9867 1.5406-0.35535 2.4696-1.9035 2.1112-3.4214-0.39573-1.6761-2.1557-2.6814-3.8092-2.2834-0.52685 0.12681-3.3578 2.2798-2.0129 4.7232" fill="none" stroke="#f4eed7" stroke-width=".35428"/>
 <path transform="matrix(1.4632 1.3231 -1.3124 1.4513 720.21 -42.679)" d="m121.1 13.682a1.24 1.24 0 1 1 -2.4799 0 1.24 1.24 0 1 1 2.4799 0z" fill="url(#j)" fill-rule="evenodd" stroke="url(#l)" stroke-width=".04618"/>
 <path d="m905.83 162.42c-0.54662-0.71022 0.51978-0.88271 1.2286-1.2854 1.1055-0.62803 1.6855 0.04899 2.2098 1.131 0.72204 1.4898 0.11365 3.0816-1.4074 3.5479-1.0407 0.31902-3.36-0.15361-4.1116-1.9859-0.92306-2.2502 0.31644-4.6006 2.5248-5.4628 2.6289-1.0263 5.5798 0.49218 6.5515 3.0769 0.38278 1.0182 2.8284 7.5487-6.9217 7.902" fill="none" stroke="#f4eed7" stroke-width=".34514"/>
 <path transform="matrix(1.4632 1.3231 -1.3124 1.4513 749.25 -16.413)" d="m121.1 13.682a1.24 1.24 0 1 1 -2.4799 0 1.24 1.24 0 1 1 2.4799 0z" fill="url(#k)" fill-rule="evenodd" stroke="#cfdae5" stroke-width=".04618"/>
 <path d="m628.3 486.91-69.51 78.202-42.295-38.247 70.253-75.433c-60.011-49.967-90.264-77.009-142.36-48.434-53.583 36.271-43.674 72.581-88.942 108.12-55.424 51.28-135.38 41.262-211.59 114.22-69.451 89.594-42.362 156.96 6.9776 215.02 48.825 51.895 73.252 72.335 118.95 108.39 89.697 66.88 169.34 60.027 228.68-1.9137 75.555-83.165 40.301-162.57 108.13-241.42 21.341-22.614 52.701-38.71 75.78-69.685 30.421-59.407 6.6973-88.676-54.069-148.83zm-93.45 61.498c24.339 22.01 26.372 59.446 4.5401 83.588s-59.283 25.872-83.622 3.8623-26.372-59.446-4.5402-83.588 59.283-25.872 83.622-3.8624z" fill="none" stroke="#fff4c7" stroke-opacity=".63701" stroke-width="2.6274"/>
 <path d="m461.62 767.88c-45.922-41.235-130.6-119.07-137.77-123.7-5.3196 0.7514-24.373 22.735-23.7 24.575l17.519 15.256c4.968 8.1447 7.5627 17.938 13.313 23.138l63.597 58.097c7.565 6.0275 18.354 6.0748 26.953 11.421l17.683 15.991c9.1768-6.7125 17.115-14.545 22.403-24.774z" fill="url(#bb)" fill-rule="evenodd" stroke="url(#ba)" stroke-width="1.6801"/>
 <path transform="matrix(2.8298 2.559 -2.559 2.8298 767.55 -71.47)" d="m49.432 218.78c0.01213-0.75153 0.56415-0.93722 1.4932-1.0824l30.152-0.39877c-2.7814 1.6174-3.9183 9.2741-0.40202 8.6591l-1.2635 0.45572c-1.2791 0.63853-2.4922 1.1463-3.6182 1.4812-1.141 0.69964-18.541 0.11394-24.437 0-0.93857-0.09897-1.7315-0.13562-3.7618-1.1963 1.6929-1.8537 1.8088-4.1102 1.8378-7.9185z" fill="url(#ad)" fill-rule="evenodd" filter="url(#n)" stroke="#28220b" stroke-width=".47562"/>
 <path d="m539.72 759.77c56.538-60.958 78.12-144.46 33.102-174.98-0.53324 0.81894-1.0285 1.653-1.5519 2.4801 0.96525 18.968-5.2403 38.223-18.908 53.337-16.514 18.262-40.153 26.283-63.039 23.785-5.8754-0.04938-8.2859-0.30842-14.693 1.5617-22.989 25.331-52.931 49.043-13.118 88.955 37.961 32.174 50.469 26.035 66.442 16.68 4.0705-3.8413 7.9971-7.759 11.766-11.823z" fill="url(#ac)" fill-rule="evenodd" stroke="#666" stroke-width="1.6801"/>
 <path d="m418.85 740.8c-18.572-16.281-40.924-36.671-63.322-55.096-4.576-2.5462-5.4809-0.37533-5.2837 1.7207 1.1721 2.216 4.0344 3.4951 5.0302 2.9242 22.096 18.371 40.888 35.141 61.285 52.984 1.9262 1.4259 3.5602-1.0184 2.2901-2.5325z" fill="#fff" fill-rule="evenodd" stroke="url(#bc)" stroke-width="2.6707"/>
 <path transform="matrix(-.3741 .41369 -.41706 -.37715 1145.4 258.71)" d="m1555.5 516.51a10.057 10.057 0 1 1 -20.115 0 10.057 10.057 0 1 1 20.115 0z" fill="url(#a)" fill-rule="evenodd"/>
 <path transform="matrix(-.3741 .41369 -.41706 -.37715 1155.2 267.14)" d="m1555.5 516.51a10.057 10.057 0 1 1 -20.115 0 10.057 10.057 0 1 1 20.115 0z" fill="url(#a)" fill-rule="evenodd"/>
 <path transform="matrix(-.3741 .41369 -.41706 -.37715 1164.9 275.73)" d="m1555.5 516.51a10.057 10.057 0 1 1 -20.115 0 10.057 10.057 0 1 1 20.115 0z" fill="url(#a)" fill-rule="evenodd"/>
 <path transform="matrix(-.3741 .41369 -.41706 -.37715 1174.5 284.45)" d="m1555.5 516.51a10.057 10.057 0 1 1 -20.115 0 10.057 10.057 0 1 1 20.115 0z" fill="url(#a)" fill-rule="evenodd"/>
 <path transform="matrix(-.3741 .41369 -.41706 -.37715 1193.9 301.62)" d="m1555.5 516.51a10.057 10.057 0 1 1 -20.115 0 10.057 10.057 0 1 1 20.115 0z" fill="url(#a)" fill-rule="evenodd"/>
 <path transform="matrix(-.3741 .41369 -.41706 -.37715 1184.2 293.04)" d="m1555.5 516.51a10.057 10.057 0 1 1 -20.115 0 10.057 10.057 0 1 1 20.115 0z" fill="url(#a)" fill-rule="evenodd"/>
</svg>
