<?xml version="1.0" encoding="iso-8859-1"?>
<!-- Generator: Adobe Illustrator 19.0.0, SVG Export Plug-In . SVG Version: 6.00 Build 0)  -->
<svg version="1.1" id="Layer_1" xmlns="http://www.w3.org/2000/svg" xmlns:xlink="http://www.w3.org/1999/xlink" x="0px" y="0px"
	 viewBox="0 0 496.2 496.2" style="enable-background:new 0 0 496.2 496.2;" xml:space="preserve">
<path style="fill:#334D5C;" d="M248.1,0C111.1,0,0,111.1,0,248.1s111.1,248.1,248.1,248.1s248.1-111.1,248.1-248.1S385.1,0,248.1,0z
	"/>
<g>
	<path style="fill:#F2DE7C;" d="M167.7,108.1c-21.5,15-19.6,78-19.6,78c-10,18-10.1,51.3-5.8,87.9c0,0-16.2,29.1-0.5,69.2
		c15.8,40.1,35.5,90,35.5,90s32.1-1.6,70.8-1.6v-284L167.7,108.1z"/>
	<path style="fill:#F2DE7C;" d="M353.2,275.1c4.4-36.8,4.6-70.6-4.9-89c-0.9-1.7,1.5-66-19.8-78l-80.2,39.5v284
		c38.7,0,70.8,1.6,70.8,1.6s22.8-54.9,35.4-91S353.2,275.1,353.2,275.1z"/>
</g>
<path style="fill:#FFFFFF;" d="M394.8,382.8c-7.3-27.3-69.9-49.3-147.1-49.3s-139.1,22.1-146.4,49.3c-3.3,12.2-7,35.2-10.1,57.5
	c42.7,34.9,97.4,55.9,156.9,55.9s114.1-21,156.9-55.9C401.8,417.9,398.1,394.9,394.8,382.8z"/>
<g>
	<path style="fill:#E2A379;" d="M300.7,336.1c-16.6-1.7-34.4-2.7-52.9-2.7c-18.8,0-36.8,1-53.6,2.7c0,0-8.1,66.9,53.9,66.9
		C310.1,403.1,300.7,336.1,300.7,336.1z"/>
	<path style="fill:#E2A379;" d="M287,282.1h-77.8c12.1,36.6,1,53.3,1,53.3s16.8,28.1,37.6,28.1s38.2-28.1,38.2-28.1
		S274.9,318.7,287,282.1z"/>
</g>
<g>
	<path style="fill:#F4B382;" d="M248.1,61.6c-44,0-79.8,21.2-79.8,113.6c0,31.3,5.6,55.8,14,74.7c18.4,41.6,50.3,56.1,65.8,56.1
		c15.4,0,47.3-14.5,65.8-56.1c8.4-18.9,14-43.4,14-74.7C327.9,82.8,292.1,61.6,248.1,61.6z"/>
	<path style="fill:#F4B382;" d="M169.8,178c-7.6,1.3-13.4,4.6-9.1,29.7c4.3,25.2,9.6,26.3,17.3,25L169.8,178z"/>
	<path style="fill:#F4B382;" d="M326.5,178l-8.1,54.8c7.6,1.3,13,0.1,17.3-25C339.9,182.6,334.1,179.3,326.5,178z"/>
</g>
<path style="fill:#F2DE7C;" d="M248.1,61.6c-62.9,0-90.7,25.1-90.7,117.5l17.4-7.8c0,0,24.3-47.2,73.3-52.3l73.3,52.3l17.4,7.8
	C338.8,86.7,311,61.6,248.1,61.6z"/>
<path style="fill:#CC785E;" d="M258.5,257.8c-3-0.4-10.4,2.5-10.4,2.5s-7.6-2.9-10.6-2.5c-4.8,0.7-16.1,4.6-16.1,6
	c0,0,14.2,9.6,26.7,9.6c12.5,0,26.7-9.6,26.7-9.6S263.4,258.5,258.5,257.8z"/>
<path style="fill:#C16952;" d="M254.2,264.4c-2-0.1-4.5,1.7-6.1,1.7c-1.9,0-4.8-1.8-7-1.6c-13.1,0.8-19.6-0.7-19.6-0.7
	s14.2,13.5,26.7,13.5c12.5,0,26.7-13.5,26.7-13.5S267.9,265.2,254.2,264.4z"/>
<g>
	<path style="fill:#F2DE7C;" d="M174.8,183.1c-0.4-2.7-0.5-5.2-0.4-7.1c0.1-2.9,0.5-4.7,0.5-4.7l-9.4,3.5c0,1.4,0,2.9,0,4.3
		c0,0,1-0.3,2.8-0.9c-0.1,0-0.2,0.1-0.3,0.1c1.3,2.2,2.9,5.6,4.5,10.5C172.4,188.8,176.1,191.5,174.8,183.1z"/>
	<path style="fill:#F2DE7C;" d="M330.7,174.8l-9.3-3.5c0,0,0.4,1.8,0.5,4.7c0.1,2,0,4.4-0.4,7.1c-1.3,8.4,2.3,5.7,2.3,5.7
		c1.5-5,3.2-8.3,4.4-10.5c1.6,0.6,2.5,0.8,2.5,0.8C330.8,177.6,330.8,176.2,330.7,174.8z"/>
</g>
<path style="fill:#E2A379;" d="M394.8,382.8c-4.8-17.9-33.4-33.6-74.3-42.2l25.3,135.6c21.4-9.2,41.3-21.3,59.1-35.9
	C401.8,417.9,398.1,394.9,394.8,382.8z"/>
<path style="fill:#87786E;" d="M382.3,408.1l-6.1,7.5h3.4c-0.7,4.6-4.6,8.3-9.6,9.1l-0.1-16.4h4.5c1,0,1.7-0.9,1.7-2s-0.8-2-1.7-2
	h-4.5v-5c2.5-0.9,4.2-3.3,4.2-6.1c0-3.5-3-6.4-6.5-6.4c-3.6,0-6.5,2.9-6.5,6.5c0,2.8,1.9,5.3,4.6,6.1v4.9h-4c-1,0-1.7,0.9-1.7,2
	s0.8,2,1.7,2h4l0.1,16.3c-4.8-0.9-8.4-4.5-9.1-8.9h3.1l-5.7-7.4l-6.1,7.5h3.6c1.2,7.3,7.1,12.9,14.6,13.7c0.4,0.7,1,1.2,1.7,1.2
	s1.3-0.4,1.7-1.1c7.7-0.7,13.9-6.4,15-13.9h3.4L382.3,408.1z M367.6,391.1c1.2,0,2.1,0.9,2.1,2c0,0.6-0.3,1.2-0.8,1.5
	c-0.7-0.6-1.8-0.6-2.5,0.1c-0.6-0.4-1-1-1-1.7C365.5,392.1,366.4,391.1,367.6,391.1z"/>
<path style="fill:#E2A379;" d="M101.4,382.8c-3.3,12.2-7,35.2-10.1,57.5c17.6,14.4,37.1,26.3,58.2,35.5l25.2-135.1
	C134.2,349.3,106.1,364.9,101.4,382.8z"/>
<g>
</g>
<g>
</g>
<g>
</g>
<g>
</g>
<g>
</g>
<g>
</g>
<g>
</g>
<g>
</g>
<g>
</g>
<g>
</g>
<g>
</g>
<g>
</g>
<g>
</g>
<g>
</g>
<g>
</g>
</svg>
